<svg width="1000" height="1000" viewBox="0 0 1000 1000" fill="none" xmlns="http://www.w3.org/2000/svg">
<rect width="1000" height="1000" fill="white"/>
<g clip-path="url(#clip0_5_30)">
<path d="M142.9 474.03L59 464.3V438.49H233.25V464.3L155.8 474.03H142.9ZM364.26 438.54H384.91L501.72 800.54H485.59L585.59 438.54H617.86L500.43 875.41H474.62L350.7 506.9H371.34L255.19 875.41H230L104.17 438.49H164.17L261.64 800.54H243.57L364.26 438.54ZM370.07 474.03L287.46 464.35V438.49H461.71V464.3L383 474.03H370.07ZM583.68 474.03L515.92 464.35V438.49H663.06V464.3L596.59 474.03H583.68Z" fill="black"/>
<path d="M613.57 236.2C602.85 236.2 594.453 240.1 588.38 247.9C582.307 255.7 579.307 266.603 579.38 280.61C579.38 292.677 582.29 302.323 588.11 309.55C593.93 316.777 601.633 320.393 611.22 320.4C620.96 320.4 628.88 316.943 634.98 310.03C641.08 303.117 644.13 294.263 644.13 283.47V267.47C644.196 263.393 643.457 259.344 641.955 255.553C640.454 251.763 638.219 248.306 635.38 245.38C632.605 242.389 629.225 240.023 625.464 238.44C621.703 236.857 617.649 236.094 613.57 236.2Z" fill="black"/>
<path d="M833.12 125.03H609.44C580.742 125.03 553.219 136.429 532.924 156.72C512.629 177.011 501.225 204.532 501.22 233.23V300.53C501.228 329.227 512.633 356.745 532.927 377.034C553.222 397.322 580.743 408.72 609.44 408.72H833.12C847.332 408.72 861.404 405.921 874.534 400.482C887.664 395.044 899.594 387.072 909.643 377.023C919.692 366.974 927.664 355.044 933.102 341.914C938.541 328.784 941.34 314.712 941.34 300.5V233.2C941.327 204.507 929.919 176.994 909.625 156.709C889.332 136.425 861.813 125.03 833.12 125.03ZM661.39 323.78C661.39 363.573 642.347 383.467 604.26 383.46C590.847 383.46 579.137 380.92 569.13 375.84V358.49C581.33 365.263 592.97 368.65 604.05 368.65C630.717 368.65 644.05 354.47 644.05 326.11V314.26H643.63C635.363 328.107 622.933 335.03 606.34 335.03C592.867 335.03 582.023 330.217 573.81 320.59C565.597 310.963 561.487 298.037 561.48 281.81C561.48 263.397 565.907 248.76 574.76 237.9C583.613 227.04 595.727 221.61 611.1 221.61C625.713 221.61 636.543 227.463 643.59 239.17H644V224.17H661.35L661.39 323.78ZM713.87 332.46H696.52V224.11H713.87V332.46ZM713.5 193.32C711.361 195.396 708.503 196.566 705.522 196.587C702.541 196.607 699.668 195.476 697.5 193.43C696.431 192.395 695.587 191.15 695.023 189.773C694.458 188.396 694.185 186.918 694.22 185.43C694.191 183.972 694.449 182.523 694.98 181.165C695.511 179.807 696.304 178.567 697.315 177.516C698.325 176.465 699.533 175.623 700.869 175.039C702.204 174.454 703.642 174.139 705.1 174.11H705.44C707.682 174.065 709.887 174.693 711.769 175.913C713.651 177.134 715.124 178.89 715.998 180.955C716.872 183.021 717.107 185.301 716.672 187.502C716.238 189.702 715.154 191.722 713.56 193.3L713.5 193.32ZM802.5 187.32C798.981 185.383 795.017 184.397 791 184.46C778.86 184.46 772.793 192.127 772.8 207.46V224.17H798.19V239.03H772.81V332.56H755.56V238.93H737.05V224.11H755.56V206.55C755.56 195.217 758.84 186.24 765.4 179.62C771.96 173 780.16 169.703 790 169.73C795.287 169.73 799.483 170.363 802.59 171.63L802.5 187.32ZM878.5 317.47C876.13 321.423 872.892 324.785 869.03 327.3C864.849 330.014 860.231 331.986 855.38 333.13C850.079 334.411 844.643 335.049 839.19 335.03C828.037 335.03 818.37 332.88 810.19 328.58V309.92C819.159 316.748 830.128 320.431 841.4 320.4C856.693 320.4 864.34 315.333 864.34 305.2C864.408 302.607 863.712 300.051 862.34 297.85C860.938 295.743 859.141 293.926 857.05 292.5C854.594 290.838 851.97 289.44 849.22 288.33C846.22 287.09 842.99 285.81 839.53 284.46C835.212 282.778 830.992 280.855 826.89 278.7C823.552 276.97 820.486 274.76 817.79 272.14C815.402 269.78 813.529 266.951 812.29 263.83C810.988 260.347 810.361 256.648 810.44 252.93C810.346 248.199 811.553 243.532 813.93 239.44C816.274 235.517 819.452 232.157 823.24 229.6C827.299 226.87 831.788 224.841 836.52 223.6C841.542 222.256 846.721 221.584 851.92 221.6C860.559 221.458 869.134 223.113 877.1 226.46V244.03C868.918 238.766 859.357 236.052 849.63 236.23C846.662 236.191 843.703 236.568 840.84 237.35C838.439 237.993 836.169 239.048 834.13 240.47C832.337 241.723 830.852 243.368 829.79 245.28C828.751 247.176 828.22 249.308 828.25 251.47C828.166 253.925 828.695 256.361 829.79 258.56C830.894 260.564 832.427 262.298 834.28 263.64C836.513 265.254 838.93 266.597 841.48 267.64C844.3 268.84 847.51 270.143 851.11 271.55C855.5 273.212 859.803 275.098 864 277.2C867.521 278.943 870.793 281.15 873.73 283.76C876.351 286.118 878.458 288.991 879.92 292.2C881.557 296.25 882.284 300.611 882.047 304.973C881.81 309.335 880.616 313.591 878.55 317.44L878.5 317.47Z" fill="black"/>
</g>
<defs>
<clipPath id="clip0_5_30">
<rect width="882.34" height="750.41" fill="white" transform="translate(59 125)"/>
</clipPath>
</defs>
</svg>
