<svg xmlns="http://www.w3.org/2000/svg" viewBox="0 0 882.34 882.34">
  <g transform="translate(0 65.97)">
    <path d="M139.56,465.78l-83.9-9.68V430.29H229.91V456.1l-77.45,9.68Zm221.36-35.49h20.65L498.38,792.34H482.25l100-362h32.27L497.09,867.21H471.28L347.36,498.7H368L251.85,867.21H226.68L100.83,430.29h60L258.3,792.34H240.23Zm5.81,35.49-82.61-9.68V430.29H458.37V456.1l-78.74,9.68Zm213.61,0-67.76-9.68V430.29H659.72V456.1l-66.47,9.68Z" transform="translate(-55.66 -116.8)"/>
    <path d="M610.23,228q-16.08,0-25.19,11.7T576,272.41q0,18.1,8.73,28.94t23.11,10.85q14.61,0,23.76-10.37t9.15-26.56v-16A31,31,0,0,0,632,237.18,28.72,28.72,0,0,0,610.23,228Z" transform="translate(-55.66 -116.8)"/>
    <path d="M829.78,116.8H606.1A108.22,108.22,0,0,0,497.88,225V292.3A108.22,108.22,0,0,0,606.1,400.52H829.78A108.22,108.22,0,0,0,938,292.3V225A108.22,108.22,0,0,0,829.78,116.8ZM658.05,315.58q0,59.69-57.13,59.68-20.11,0-35.13-7.62V350.29q18.3,10.15,34.92,10.16,40,0,40-42.54V306.06h-.42Q627.89,326.8,603,326.8q-20.21,0-32.53-14.44t-12.33-38.78q0-27.62,13.28-43.91t36.34-16.29q21.91,0,32.49,17.56h.42v-15h17.35Zm52.48,8.68H693.18V215.91h17.35Zm-.37-139.14a11.57,11.57,0,0,1-16,.11,10.75,10.75,0,0,1-3.28-8,11.1,11.1,0,0,1,11.22-11.32,11.2,11.2,0,0,1,8.09,3.22,11.29,11.29,0,0,1,0,16Zm89-6a23.14,23.14,0,0,0-11.53-2.86q-18.21,0-18.2,23v16.71h25.39v14.82H769.47v93.53H752.22V230.73H733.71V215.91h18.51V198.35q0-17,9.84-26.93t24.55-9.89q7.93,0,12.59,1.9Zm76,130.15a30.32,30.32,0,0,1-9.47,9.83,43.36,43.36,0,0,1-13.65,5.83,67.92,67.92,0,0,1-16.19,1.9q-16.73,0-29-6.45V301.72a51.29,51.29,0,0,0,31.21,10.48Q861,312.2,861,297a13.25,13.25,0,0,0-2-7.35,19.75,19.75,0,0,0-5.29-5.35,41.62,41.62,0,0,0-7.83-4.17c-3-1.24-6.23-2.52-9.69-3.87a124,124,0,0,1-12.64-5.76,38.49,38.49,0,0,1-9.1-6.56,24.41,24.41,0,0,1-5.5-8.31,29.24,29.24,0,0,1-1.85-10.9,25.87,25.87,0,0,1,3.49-13.49,31.08,31.08,0,0,1,9.31-9.84,43.58,43.58,0,0,1,13.28-6,58.87,58.87,0,0,1,15.4-2,62.28,62.28,0,0,1,25.18,4.86V235.8A49.15,49.15,0,0,0,846.29,228a31.82,31.82,0,0,0-8.79,1.12,21.34,21.34,0,0,0-6.71,3.12,14.37,14.37,0,0,0-4.34,4.81,12.6,12.6,0,0,0-1.54,6.19,14.76,14.76,0,0,0,1.54,7.09,15.54,15.54,0,0,0,4.49,5.08,34.68,34.68,0,0,0,7.2,4q4.23,1.8,9.63,3.91A136.27,136.27,0,0,1,860.68,269a44,44,0,0,1,9.73,6.56A25.59,25.59,0,0,1,876.6,284a27.06,27.06,0,0,1,2.17,11.32A26.73,26.73,0,0,1,875.23,309.24Z" transform="translate(-55.66 -116.8)"/>
  </g>
</svg>
